<?xml version="1.0" encoding="UTF-8" standalone="no"?>
<!-- Designed by Vexels.com - 2016 All Rights Reserved - https://vexels.com/terms-and-conditions/  -->

<svg
   xmlns:dc="http://purl.org/dc/elements/1.1/"
   xmlns:cc="http://creativecommons.org/ns#"
   xmlns:rdf="http://www.w3.org/1999/02/22-rdf-syntax-ns#"
   xmlns:svg="http://www.w3.org/2000/svg"
   xmlns="http://www.w3.org/2000/svg"
   xmlns:sodipodi="http://sodipodi.sourceforge.net/DTD/sodipodi-0.dtd"
   xmlns:inkscape="http://www.inkscape.org/namespaces/inkscape"
   version="1.1"
   id="Capa_1"
   x="0px"
   y="0px"
   width="1200px"
   height="1200px"
   viewBox="0 0 1200 1200"
   enable-background="new 0 0 1200 1200"
   xml:space="preserve"
   sodipodi:docname="telegram.svg"
   inkscape:version="0.92.3 (2405546, 2018-03-11)"><metadata
   id="metadata37"><rdf:RDF><cc:Work
       rdf:about=""><dc:format>image/svg+xml</dc:format><dc:type
         rdf:resource="http://purl.org/dc/dcmitype/StillImage" /><dc:title></dc:title></cc:Work></rdf:RDF></metadata><defs
   id="defs35" /><sodipodi:namedview
   pagecolor="#ffffff"
   bordercolor="#666666"
   borderopacity="1"
   objecttolerance="10"
   gridtolerance="10"
   guidetolerance="10"
   inkscape:pageopacity="0"
   inkscape:pageshadow="2"
   inkscape:window-width="1366"
   inkscape:window-height="713"
   id="namedview33"
   showgrid="false"
   inkscape:zoom="0.19282552"
   inkscape:cx="148.88339"
   inkscape:cy="147.36444"
   inkscape:window-x="0"
   inkscape:window-y="29"
   inkscape:window-maximized="1"
   inkscape:current-layer="Capa_1" />
<g
   id="VEXELS">
</g>
<g
   id="g30"
   transform="matrix(1.0909091,0,0,1.0909111,-54.54546,-54.54666)">
	<g
   id="BACKGROUND">
		<g
   id="g27">
			<path
   d="M 599.999,50.001 C 903.753,50.001 1150,296.244 1150,600 1150,903.753 903.754,1149.999 599.999,1149.999 296.244,1149.999 50,903.753 50,600 50,296.244 296.244,50.001 599.999,50.001 Z"
   id="path3"
   inkscape:connector-curvature="0"
   style="fill:#7aa5da" />
			<g
   id="g15">
				<g
   id="g11">
					<path
   d="m 440.657,497.363 c -1.487,1.278 -2.972,2.545 -4.447,3.801 1.475,-1.262 2.959,-2.522 4.447,-3.801 z"
   id="path5"
   inkscape:connector-curvature="0"
   style="fill:#2ea0d9" />
					<path
   d="m 892.164,330.815 c -8.77,1.732 -17.273,5.12 -25.686,8.333 -76.994,29.384 -557.852,210.055 -575.879,220.27 -6.655,3.771 -12.439,15.027 -12.354,22.807 0.058,5.739 9.276,14.154 16.124,16.599 49.027,17.59 98.495,33.945 147.822,50.702 31.443,-18.868 63.342,-37.025 94.26,-56.734 83.182,-52.994 165.893,-106.74 248.959,-159.909 6.838,-4.368 15.031,-6.63 22.588,-9.876 1.33,1.887 2.658,3.762 3.986,5.627 -3.043,4.193 -5.475,9.032 -9.209,12.468 -55.922,51.456 -112.043,102.704 -167.994,154.121 -4.727,4.329 -8.67,9.499 -12.979,14.282 -28.398,27.357 -56.803,54.71 -85.199,82.067 28.719,22.487 57.438,44.965 86.16,67.441 25.295,17.627 115.311,86.895 137.014,100.757 31.783,20.299 54.135,8.915 61.373,-20.08 13.699,-54.903 98.713,-461.203 100.482,-483.998 1.502,-19.554 -10.23,-28.676 -29.468,-24.877 z"
   id="path7"
   inkscape:connector-curvature="0"
   style="fill:#f6f9fb" />
					<path
   d="m 516.808,843.501 c 4.275,-44.075 8.322,-88.17 13.028,-132.196 0.723,-6.745 4.433,-13.182 6.763,-19.743 28.717,22.487 57.438,44.965 86.16,67.442 -29.96,26.815 -59.746,53.825 -90.107,80.188 -3.711,3.237 -10.481,2.966 -15.844,4.309 z"
   id="path9"
   inkscape:connector-curvature="0"
   style="fill:#adc6d9" />
				</g>
				<path
   d="m 621.792,609.499 c -28.395,27.357 -56.797,54.705 -85.193,82.063 -2.336,6.562 -6.047,12.998 -6.763,19.743 -4.706,44.026 -8.753,88.121 -13.028,132.196 -16.467,-2.077 -17.703,-16.302 -21.453,-27.869 -17.965,-55.285 -35.484,-110.725 -53.169,-166.106 31.442,-18.868 63.343,-37.025 94.261,-56.734 83.182,-52.994 165.891,-106.74 248.959,-159.909 6.836,-4.368 48.828,-25.62 56.396,-28.855 1.322,1.875 -35.301,33.639 -39.037,37.069 -55.922,51.455 -112.043,102.703 -167.994,154.121 -4.717,4.328 -8.668,9.498 -12.979,14.281 z"
   id="path13"
   inkscape:connector-curvature="0"
   style="fill:#cdddea" />
			</g>
			<path
   enable-background="new    "
   d="M 1149.13,569.096 917.446,337.416 c 3.295,4.349 4.793,10.482 4.189,18.281 -1.754,22.783 -86.773,429.079 -100.467,484.006 -7.275,28.962 -29.613,40.384 -61.383,20.071 -21.738,-13.857 -111.719,-83.164 -137.027,-100.752 -7.596,6.784 -15.191,13.606 -22.751,20.429 -22.349,20.037 -44.687,40.104 -67.356,59.76 -3.692,3.208 -10.48,2.928 -15.84,4.31 -4.433,-0.57 -7.803,-2.077 -10.404,-4.059 l 93.601,93.591 185.05,185.047 h 0.037 c 212.666,-76.052 364.885,-279.256 364.885,-518.09 0,-10.36 -0.279,-20.67 -0.85,-30.914 z"
   id="path17"
   inkscape:connector-curvature="0"
   style="opacity:0.2" />
			<g
   id="g23">
				<path
   d="m 440.657,497.363 c -1.487,1.278 -2.972,2.545 -4.447,3.801 1.475,-1.262 2.959,-2.522 4.447,-3.801 z"
   id="path19"
   inkscape:connector-curvature="0"
   style="fill:#2ea0d9" />
				<path
   d="m 917.447,337.416 -3.371,-3.336 c 1.259,0.896 2.396,2.039 3.371,3.336 z"
   id="path21"
   inkscape:connector-curvature="0"
   style="fill:#f6f9fb" />
			</g>
			<path
   enable-background="new    "
   d="m 917.447,337.416 -3.371,-3.336 c -5.162,-3.934 -12.68,-5.11 -21.938,-3.286 -8.773,1.754 -17.268,5.163 -25.676,8.368 -34.285,13.037 -148.557,56.146 -266.454,100.791 v 112.164 78.361 110.705 38.268 c 7.56,-6.822 15.155,-13.645 22.751,-20.429 25.309,17.588 115.295,86.895 137.027,100.747 31.77,20.313 54.111,8.896 61.383,-20.071 13.693,-54.932 98.713,-461.222 100.467,-484.007 0.604,-7.793 -0.894,-13.926 -4.189,-18.275 z"
   id="path25"
   inkscape:connector-curvature="0"
   style="opacity:0.1" />
		</g>
	</g>
</g>
</svg>